<svg width="20" height="17" viewBox="0 0 20 17" fill="currentColor" xmlns="http://www.w3.org/2000/svg">
<path d="M19.3335 8.31995C19.3335 8.76292 19.0043 9.12902 18.5772 9.18696L18.4585 9.19495L0.958494 9.19495C0.475246 9.19495 0.0834942 8.80319 0.0834942 8.31995C0.0834942 7.87697 0.412674 7.51087 0.839764 7.45293L0.958494 7.44495L18.4585 7.44495C18.9417 7.44495 19.3335 7.8367 19.3335 8.31995Z" fill="currentColor"/>
<path d="M8.63399 14.7284C8.97643 15.0694 8.97762 15.6234 8.63665 15.9658C8.32668 16.2771 7.84063 16.3064 7.49754 16.053L7.39922 15.9685L0.340883 8.94048C0.0286398 8.62958 0.000235558 8.14178 0.255682 7.79869L0.340832 7.70043L7.39917 0.671262C7.74158 0.330261 8.2956 0.331408 8.6366 0.673824C8.9466 0.985111 8.97383 1.47128 8.71896 1.8133L8.63404 1.91126L2.19867 8.32078L8.63399 14.7284Z" fill="currentColor"/>
</svg>
