<svg width="16" height="10" viewBox="0 0 16 10" fill="none" xmlns="http://www.w3.org/2000/svg">
<path fill-rule="evenodd" clip-rule="evenodd" d="M7.02919 5.00551L7.03046 5.30059C7.0406 6.47098 7.11115 7.51522 7.23283 8.17698C7.23283 8.18891 7.36555 8.84524 7.4501 9.0637C7.58282 9.37947 7.82282 9.64751 8.12373 9.81733C8.36463 9.9385 8.61736 10 8.8819 10C9.08985 9.99036 9.4328 9.88572 9.67757 9.79798L9.88098 9.72003C11.2282 9.18487 13.8037 7.4362 14.79 6.36681L14.8627 6.29206L15.1873 5.9418C15.3918 5.67377 15.5 5.34606 15.5 4.99357C15.5 4.6778 15.4036 4.36203 15.2109 4.10685C15.1532 4.02417 15.0603 3.91811 14.9776 3.82849L14.6617 3.49782C13.5746 2.39643 11.221 0.851526 10.001 0.339637C10.001 0.328621 9.2428 0.0119332 8.8819 0H8.83372C8.28009 0 7.76282 0.31577 7.49828 0.826143C7.42601 0.965669 7.35669 1.23898 7.30396 1.47903L7.20919 1.93226C7.10101 2.6611 7.02919 3.77914 7.02919 5.00551ZM1.75271 3.73472C1.0609 3.73472 0.5 4.30108 0.5 4.99963C0.5 5.69818 1.0609 6.26455 1.75271 6.26455L4.8354 5.99192C5.37812 5.99192 5.81812 5.54856 5.81812 4.99963C5.81812 4.45162 5.37812 4.00734 4.8354 4.00734L1.75271 3.73472Z" fill="white"/>
</svg>
