<svg width="21" height="21" viewBox="0 0 21 21" fill="none" xmlns="http://www.w3.org/2000/svg">
<path d="M0.875 1.24991L2.955 1.60991L3.918 13.0829C3.995 14.0199 4.778 14.7389 5.718 14.7359H16.627C17.524 14.7379 18.285 14.0779 18.412 13.1899L19.361 6.63191C19.467 5.89891 18.958 5.21891 18.226 5.11291C18.162 5.10391 3.289 5.09891 3.289 5.09891" stroke="#9E9E9E" stroke-width="1.5" stroke-linecap="round" stroke-linejoin="round"/>
<path d="M12.25 8.7948H15.023" stroke="#9E9E9E" stroke-width="1.5" stroke-linecap="round" stroke-linejoin="round"/>
<path fill-rule="evenodd" clip-rule="evenodd" d="M5.27935 18.2025C5.58035 18.2025 5.82335 18.4465 5.82335 18.7465C5.82335 19.0475 5.58035 19.2915 5.27935 19.2915C4.97835 19.2915 4.73535 19.0475 4.73535 18.7465C4.73535 18.4465 4.97835 18.2025 5.27935 18.2025Z" fill="#9E9E9E" stroke="#9E9E9E" stroke-width="1.5" stroke-linecap="round" stroke-linejoin="round"/>
<path fill-rule="evenodd" clip-rule="evenodd" d="M16.5596 18.2025C16.8606 18.2025 17.1046 18.4465 17.1046 18.7465C17.1046 19.0475 16.8606 19.2915 16.5596 19.2915C16.2586 19.2915 16.0156 19.0475 16.0156 18.7465C16.0156 18.4465 16.2586 18.2025 16.5596 18.2025Z" fill="#9E9E9E" stroke="#9E9E9E" stroke-width="1.5" stroke-linecap="round" stroke-linejoin="round"/>
</svg>
