<svg width="28" height="28" viewBox="0 0 28 28" fill="none" xmlns="http://www.w3.org/2000/svg">
<path fill-rule="evenodd" clip-rule="evenodd" d="M0.666626 14.0201C0.666626 6.99618 6.27996 0.666687 14.0266 0.666687C21.6 0.666687 27.3333 6.876 27.3333 13.98C27.3333 22.219 20.6133 27.3334 14 27.3334C11.8133 27.3334 9.38663 26.7458 7.43996 25.5974C6.75996 25.1835 6.18663 24.8763 5.45329 25.1167L2.75996 25.9179C2.07996 26.1316 1.46663 25.5974 1.66663 24.8763L2.55996 21.8852C2.70663 21.4712 2.67996 21.0306 2.46663 20.6834C1.31996 18.5735 0.666626 16.2634 0.666626 14.0201ZM12.2666 14.02C12.2666 14.9681 13.0266 15.7293 13.9733 15.7426C14.92 15.7426 15.68 14.9681 15.68 14.0334C15.68 13.0853 14.92 12.3242 13.9733 12.3242C13.04 12.3108 12.2666 13.0853 12.2666 14.02ZM18.4133 14.0334C18.4133 14.9681 19.1733 15.7426 20.12 15.7426C21.0666 15.7426 21.8266 14.9681 21.8266 14.0334C21.8266 13.0853 21.0666 12.3242 20.12 12.3242C19.1733 12.3242 18.4133 13.0853 18.4133 14.0334ZM7.82663 15.7426C6.89329 15.7426 6.11996 14.9681 6.11996 14.0334C6.11996 13.0853 6.87996 12.3242 7.82663 12.3242C8.77329 12.3242 9.53329 13.0853 9.53329 14.0334C9.53329 14.9681 8.77329 15.7293 7.82663 15.7426Z" fill="#F77E34"/>
</svg>
