<svg width="16" height="14" viewBox="0 0 16 14" fill="none" xmlns="http://www.w3.org/2000/svg">
<path d="M6.60802 10.8274H1.35742" stroke="#F77E34" stroke-width="1.5" stroke-linecap="round" stroke-linejoin="round"/>
<path d="M8.9502 2.75035H14.2008" stroke="#F77E34" stroke-width="1.5" stroke-linecap="round" stroke-linejoin="round"/>
<path fill-rule="evenodd" clip-rule="evenodd" d="M5.27158 2.70521C5.27158 1.6255 4.38978 0.75 3.30229 0.75C2.21481 0.75 1.33301 1.6255 1.33301 2.70521C1.33301 3.78492 2.21481 4.66042 3.30229 4.66042C4.38978 4.66042 5.27158 3.78492 5.27158 2.70521Z" stroke="#F77E34" stroke-width="1.5" stroke-linecap="round" stroke-linejoin="round"/>
<path fill-rule="evenodd" clip-rule="evenodd" d="M14.6661 10.7948C14.6661 9.7151 13.785 8.8396 12.6975 8.8396C11.6093 8.8396 10.7275 9.7151 10.7275 10.7948C10.7275 11.8745 11.6093 12.75 12.6975 12.75C13.785 12.75 14.6661 11.8745 14.6661 10.7948Z" stroke="#F77E34" stroke-width="1.5" stroke-linecap="round" stroke-linejoin="round"/>
</svg>
