<svg width="24" height="24" viewBox="0 0 24 24" fill="none" stroke="currentColor" xmlns="http://www.w3.org/2000/svg">
<path fill-rule="evenodd" clip-rule="evenodd" d="M1.5 5.58333C1.5 2.52059 1.53279 1.5 5.58333 1.5C9.63387 1.5 9.66667 2.52059 9.66667 5.58333C9.66667 8.64608 9.67959 9.66667 5.58333 9.66667C1.48708 9.66667 1.5 8.64608 1.5 5.58333Z" stroke-width="1.5" stroke-linecap="round" stroke-linejoin="round"/>
<path fill-rule="evenodd" clip-rule="evenodd" d="M14.3333 5.58333C14.3333 2.52059 14.366 1.5 18.4166 1.5C22.4671 1.5 22.4999 2.52059 22.4999 5.58333C22.4999 8.64608 22.5128 9.66667 18.4166 9.66667C14.3203 9.66667 14.3333 8.64608 14.3333 5.58333Z" stroke-width="1.5" stroke-linecap="round" stroke-linejoin="round"/>
<path fill-rule="evenodd" clip-rule="evenodd" d="M1.5 18.4167C1.5 15.354 1.53279 14.3334 5.58333 14.3334C9.63387 14.3334 9.66667 15.354 9.66667 18.4167C9.66667 21.4795 9.67959 22.5 5.58333 22.5C1.48708 22.5 1.5 21.4795 1.5 18.4167Z" stroke-width="1.5" stroke-linecap="round" stroke-linejoin="round"/>
<path fill-rule="evenodd" clip-rule="evenodd" d="M14.3333 18.4167C14.3333 15.354 14.366 14.3334 18.4166 14.3334C22.4671 14.3334 22.4999 15.354 22.4999 18.4167C22.4999 21.4795 22.5128 22.5 18.4166 22.5C14.3203 22.5 14.3333 21.4795 14.3333 18.4167Z" stroke-width="1.5" stroke-linecap="round" stroke-linejoin="round"/>
</svg>
