<svg width="20" height="20" viewBox="0 0 20 20" fill="currentColor" xmlns="http://www.w3.org/2000/svg">
<path d="M7.50978 18.7733V15.7156C7.50978 14.9351 8.14717 14.3023 8.93344 14.3023H11.8076C12.1852 14.3023 12.5473 14.4512 12.8143 14.7163C13.0813 14.9813 13.2313 15.3408 13.2313 15.7156V18.7733C13.2289 19.0978 13.3571 19.4099 13.5874 19.6402C13.8177 19.8705 14.1311 20 14.4579 20H16.4188C17.3346 20.0023 18.2138 19.6428 18.8622 19.0008C19.5106 18.3588 19.875 17.487 19.875 16.5778V7.86686C19.875 7.13246 19.5471 6.43584 18.9796 5.96467L12.309 0.675869C11.1487 -0.251438 9.48611 -0.221498 8.36039 0.746979L1.84201 5.96467C1.24774 6.42195 0.892552 7.12064 0.875 7.86686V16.5689C0.875 18.4639 2.42238 20 4.33117 20H6.24729C6.92623 20 7.478 19.4562 7.48292 18.7822L7.50978 18.7733Z"/>
</svg>
