<svg width="20" height="20" viewBox="0 0 20 20" fill="none" xmlns="http://www.w3.org/2000/svg">
<path d="M18.8406 5.36416L18.3551 5.75649L18.6528 6.30514C19.0255 6.99224 19.25 7.83258 19.25 8.75V19.25H18.75V16.2862V16.0261L18.5889 15.8218L16.5889 13.2856L16.3637 13H16H15.9998H15.9995H15.999H15.9984H15.9976H15.9967H15.9956H15.9943H15.9929H15.9913H15.9896H15.9877H15.9857H15.9835H15.9812H15.9787H15.9761H15.9733H15.9704H15.9673H15.9641H15.9607H15.9572H15.9535H15.9497H15.9458H15.9417H15.9374H15.9331H15.9285H15.9239H15.9191H15.9141H15.9091H15.9038H15.8985H15.893H15.8874H15.8816H15.8757H15.8697H15.8635H15.8572H15.8508H15.8442H15.8375H15.8307H15.8237H15.8166H15.8094H15.8021H15.7946H15.787H15.7793H15.7714H15.7635H15.7554H15.7471H15.7388H15.7303H15.7217H15.713H15.7042H15.6952H15.6861H15.6769H15.6676H15.6582H15.6486H15.639H15.6292H15.6193H15.6093H15.5992H15.5889H15.5786H15.5681H15.5575H15.5468H15.536H15.5251H15.5141H15.503H15.4918H15.4804H15.469H15.4574H15.4458H15.434H15.4221H15.4102H15.3981H15.3859H15.3737H15.3613H15.3488H15.3362H15.3236H15.3108H15.2979H15.2849H15.2719H15.2587H15.2455H15.2321H15.2187H15.2051H15.1915H15.1778H15.164H15.1501H15.1361H15.122H15.1078H15.0935H15.0792H15.0647H15.0502H15.0356H15.0209H15.0061H14.9913H14.9763H14.9613H14.9462H14.931H14.9157H14.9003H14.8849H14.8694H14.8538H14.8381H14.8224H14.8066H14.7907H14.7747H14.7586H14.7425H14.7263H14.71H14.6937H14.6773H14.6608H14.6442H14.6276H14.6109H14.5941H14.5773H14.5604H14.5434H14.5264H14.5093H14.4922H14.4749H14.4576H14.4403H14.4229H14.4054H14.3879H14.3703H14.3526H14.3349H14.3171H14.2993H14.2814H14.2634H14.2454H14.2274H14.2093H14.1911H14.1729H14.1546H14.1363H14.1179H14.0995H14.081H14.0625H14.0439H14.0253H14.0066H13.9879H13.9691H13.9503H13.9314H13.9125H13.8936H13.8746H13.8556H13.8365H13.8174H13.7982H13.779H13.7598H13.7405H13.7212H13.7018H13.6824H13.663H13.6435H13.624H13.6045H13.5849H13.5653H13.5457H13.526H13.5063H13.4866H13.4668H13.447H13.4272H13.4074H13.3875H13.3676H13.3477H13.3277H13.3077H13.2877H13.2677H13.2476H13.2275H13.2074H13.1873H13.1672H13.147H13.1268H13.1066H13.0864H13.0662H13.0459H13.0256H13.0054H12.9851H12.9647H12.9444H12.9241H12.9037H12.8833H12.8629H12.8425H12.8221H12.8017H12.7813H12.7609H12.7404H12.72H12.6995H12.6791H12.6586H12.6381H12.6177H12.5972H12.5767H12.5562H12.5357H12.5152H12.4948H12.4743H12.4538H12.4333H12.4128H12.3923H12.3719H12.3514H12.3309H12.3104H12.29H12.2695H12.2491H12.2287H12.2082H12.1878H12.1674H12.147H12.1266H12.1062H12.0859H12.0655H12.0452H12.0248H12.0045H11.9842H11.964H11.9437H11.9235H11.9032H11.883H11.8628H11.8426H11.8225H11.8024H11.7823H11.7622H11.7421H11.7221H11.702H11.682H11.6621H11.6421H11.6222H11.6023H11.5825H11.5626H11.5428H11.523H11.5033H11.4836H11.4639H11.4442H11.4246H11.405H11.3855H11.366H11.3465H11.327H11.3076H11.2883H11.2689H11.2496H11.2304H11.2112H11.192H11.1728H11.1537H11.1347H11.1157H11.0967H11.0778H11.0589H11.0401H11.0213H11.0025H10.9838H10.9652H10.9466H10.928H10.9095H10.8911H10.8727H10.8543H10.836H10.8178H10.7996H10.7814H10.7634H10.7453H10.7274H10.7094H10.6916H10.6738H10.656H10.6383H10.6207H10.6031H10.5856H10.5682H10.5508H10.5335H10.5162H10.499H10.4819H10.4649H10.4479H10.4309H10.4141H10.3973H10.3805H10.3639H10.3473H10.3308H10.3143H10.2979H10.2816H10.2654H10.2492H10.2331H10.2171H10.2012H10.1853H10.1695H10.1538H10.1382H10.1227H10.1072H10.0918H10.0765H10.0612H10.0461H10.031H10.016H10.0011H9.98629H9.97155H9.9569H9.94233H9.92785H9.91346H9.89915H9.88494H9.87081H9.85677H9.84282H9.82896H9.81519H9.80151H9.78793H9.77444H9.76104H9.74774H9.73453H9.72142H9.70841H9.69549H9.68267H9.66994H9.65732H9.6448H9.63237H9.62005H9.60782H9.5957H9.58368H9.57177H9.55996H9.54825H9.53665H9.52515H9.51376H9.50248H9.4913H9.48023H9.46927H9.45842H9.44768H9.43705H9.42654H9.41613H9.40584H9.39566H9.38559H9.37564H9.3658H9.35608H9.34647H9.33698H9.32761H9.31836H9.30922H9.30021H9.29131H9.28254H9.27388H9.26535H9.25694H9.24866H9.24049H9.23246H9.22454H9.21675H9.20909H9.20156H9.19415H9.18687H9.17972H9.1727H9.16581H9.15905H9.15242H9.14592H9.13956H9.13332H9.12723H9.12126H9.11543H9.10974H9.10418H9.09876H9.09348H9.08833H9.08333H9.07846H9.07373H9.06915H9.0647H9.0604H9.05624H9.05222H9.04834H9.04461H9.04103H9.03759H9.03429H9.03115H9.02815H9.0253H9.02259H9.02004H9.01764H9.01538H9.01328H9.01133H9.00954H9.00789H9.0064H9.00506H9.00388H9.00286H9.00199H9.00127H9.00072H9.00032H9.00008L9 13.75V13H8.25V13.75V19.25H7.75V16.3825V16.1834L7.65124 16.0105L5.05725 11.4693C4.86614 11.0255 4.75 10.5312 4.75 10V9.25H4H2.5C1.68074 9.25 0.75 8.35186 0.75 6.875C0.75 5.6031 1.46787 4.72097 2.18795 4.53984L2.755 4.39721V3.8125C2.755 3.77814 2.75299 3.74932 2.75118 3.72936C2.75087 3.72583 2.75053 3.72238 2.7502 3.71907C2.77068 2.14352 4.35262 0.75 6 0.75C6.95921 0.75 7.9501 1.24808 8.58783 2.02654L8.58781 2.02656L8.5918 2.03134L10.4238 4.23009L10.6487 4.5H11H16C16.2536 4.5 16.5131 4.55553 16.8029 4.65393L17.6207 4.93164L17.781 4.0829C17.8947 3.48042 18.2697 3.25 18.5 3.25C18.7663 3.25 19.25 3.58939 19.25 4.375C19.25 4.8365 19.0567 5.18954 18.8406 5.36416Z" stroke="#F77E34" stroke-width="1.5"/>
</svg>
