<svg width="24" height="24" viewBox="0 0 24 24" fill="none" xmlns="http://www.w3.org/2000/svg">
<path fill-rule="evenodd" clip-rule="evenodd" d="M23.6668 12C23.6668 18.44 18.4284 23.6667 12.0001 23.6667L11.6737 23.6622C5.38443 23.4892 0.333435 18.3309 0.333435 12C0.333435 5.57168 5.5601 0.333344 12.0001 0.333344C18.4284 0.333344 23.6668 5.57168 23.6668 12ZM9.6901 7.33334C9.35177 7.68334 9.35177 8.23168 9.70177 8.57001L13.1434 12L9.70177 15.43C9.35177 15.7683 9.35177 16.3283 9.6901 16.6667C10.0401 17.0167 10.5884 17.0167 10.9268 16.6667L14.9984 12.6183C15.1618 12.455 15.2551 12.2333 15.2551 12C15.2551 11.7667 15.1618 11.545 14.9984 11.3817L10.9268 7.33334C10.7634 7.15834 10.5418 7.07668 10.3201 7.07668C10.0868 7.07668 9.8651 7.15834 9.6901 7.33334Z" fill="#718096"/>
</svg>
