<svg width="18" height="16" viewBox="0 0 18 16" fill="none" xmlns="http://www.w3.org/2000/svg">
<path opacity="0.4" d="M9.81391 0.594658L11.6693 4.32322C11.806 4.59336 12.0669 4.78095 12.3678 4.82264L16.5354 5.42962C16.7787 5.4638 16.9996 5.5922 17.1488 5.78813C17.2964 5.98156 17.3597 6.22669 17.3239 6.46764C17.2947 6.66775 17.2005 6.85284 17.0563 6.99458L14.0365 9.9219C13.8156 10.1262 13.7156 10.4288 13.7689 10.7248L14.5124 14.8402C14.5916 15.3372 14.2624 15.8057 13.7689 15.8999C13.5655 15.9325 13.3572 15.8983 13.1738 15.8049L9.45633 13.8681C9.18044 13.7288 8.85454 13.7288 8.57865 13.8681L4.86118 15.8049C4.40442 16.0475 3.83846 15.8824 3.58424 15.4322C3.49005 15.2529 3.45671 15.0487 3.48755 14.8494L4.23105 10.7331C4.28439 10.438 4.18354 10.1337 3.96349 9.9294L0.943673 7.00375C0.584429 6.65691 0.573593 6.08578 0.919501 5.72643C0.927003 5.71893 0.935338 5.71059 0.943673 5.70226C1.08704 5.55635 1.27541 5.4638 1.47879 5.43962L5.64635 4.83181C5.94641 4.78929 6.2073 4.60336 6.34483 4.33156L8.13355 0.594658C8.29275 0.274495 8.62282 0.0752273 8.98123 0.0835648H9.09292C9.40382 0.121084 9.67471 0.313682 9.81391 0.594658" fill="#F3B004"/>
<path d="M8.99367 13.7642C8.83225 13.7692 8.67499 13.8126 8.53355 13.8902L4.83426 15.8226C4.38162 16.0386 3.83996 15.871 3.58619 15.4381C3.49217 15.2613 3.45805 15.0586 3.48967 14.8601L4.22853 10.7526C4.27845 10.454 4.17861 10.1504 3.96144 9.94027L0.940273 7.01538C0.58166 6.66426 0.575004 6.08795 0.926128 5.72849C0.931121 5.72348 0.935281 5.71931 0.940273 5.71514C1.08339 5.57336 1.2681 5.47995 1.46696 5.45076L5.63802 4.83692C5.94005 4.79856 6.20215 4.61007 6.33527 4.33651L8.14831 0.552578C8.32054 0.247328 8.65087 0.0655122 9.00033 0.0846945C8.99367 0.332398 8.99367 13.5958 8.99367 13.7642" fill="#F3B004"/>
</svg>
