<svg width="22" height="18" viewBox="0 0 22 18" fill="currentColor" xmlns="http://www.w3.org/2000/svg">
<path d="M3.575 7.84709e-09H18.425C19.3382 -6.11401e-05 20.2167 0.357248 20.8805 0.99863C21.5442 1.64001 21.9428 2.51684 21.9945 3.44925L22 3.65625V14.3438C22.0001 15.2777 21.6507 16.1762 21.0236 16.855C20.3964 17.5338 19.5391 17.9415 18.6274 17.9944L18.425 18H3.575C2.66185 18.0001 1.78329 17.6428 1.11955 17.0014C0.455803 16.36 0.0571985 15.4832 0.00550013 14.5507L7.6727e-09 14.3438V3.65625C-5.97814e-05 2.72235 0.34931 1.82382 0.976439 1.14499C1.60357 0.466163 2.46091 0.0584985 3.3726 0.00562514L3.575 7.84709e-09H18.425H3.575ZM20.35 6.04463L11.385 10.8709C11.2838 10.9256 11.1725 10.9581 11.0583 10.9664C10.9441 10.9748 10.8295 10.9587 10.7217 10.9193L10.6161 10.872L1.65 6.04575V14.3438C1.65002 14.8378 1.83169 15.3139 2.15895 15.6773C2.48621 16.0408 2.93513 16.2651 3.4166 16.3057L3.575 16.3125H18.425C18.9083 16.3125 19.3739 16.1265 19.7293 15.7916C20.0847 15.4566 20.3039 14.9972 20.3434 14.5046L20.35 14.3438V6.04463ZM18.425 1.6875H3.575C3.09189 1.68752 2.62645 1.87332 2.27107 2.20801C1.91569 2.54271 1.69635 3.00184 1.6566 3.49425L1.65 3.65625V4.13888L11 9.171L20.35 4.13775V3.65625C20.35 3.16198 20.1681 2.68581 19.8406 2.32233C19.5132 1.95884 19.064 1.73464 18.5823 1.69425L18.425 1.6875Z"/>
</svg>
