<svg width="43" height="18" viewBox="0 0 43 18" fill="none" xmlns="http://www.w3.org/2000/svg">
<path d="M17.9834 -30.674C17.3774 -17.287 18.1212 -3.95182 17.9218 9.55443C17.8863 12.0355 18.077 14.6933 17.9635 17.1855C17.9505 17.4801 17.8967 17.7045 17.6193 17.7115C17.2404 17.647 16.8607 17.5909 16.4766 17.7185C16.3544 15.9289 16.4012 14.546 16.3015 13.0046C16.0839 9.64559 16.2061 6.90367 16.1879 3.24029C16.1593 -3.03037 15.8307 -9.41883 16.1151 -15.6797C16.2148 -17.9097 16.2261 -21.5674 16.155 -23.8017C16.0839 -26.0737 16.0102 -27.7582 16.0969 -30.6558C16.767 -30.789 17.3956 -30.7918 17.9834 -30.674Z" fill="#F06347"/>
<path d="M14.9672 13.7879C15.1137 11.728 14.7226 8.54088 14.7164 6.8843C14.7127 5.91388 14.6171 1.89637 14.6717 0.930146C14.7599 -0.67742 14.6941 -2.29759 14.6941 -3.91216C14.6903 -5.96783 14.7959 -8.02069 14.776 -10.0778C14.7512 -12.6852 14.5252 -15.2799 14.4458 -17.8859C14.2769 -23.3122 14.9858 -30.528 14.6903 -34.3495C13.4824 -34.645 11.9988 -34.722 10.3675 -34.6786C9.95781 -31.6567 10.0695 -28.6236 10.1204 -24.9436C10.1515 -22.5532 9.96401 -19.7736 10.0062 -16.2266C10.0373 -13.5309 10.6481 -10.3074 10.3998 -8.12992C10.041 -4.982 9.99629 -1.73746 10.2694 1.43846C10.6568 5.9811 10.514 13.4364 10.5686 13.533" fill="#B3223E"/>
<path d="M25.4141 14.8162C25.581 9.13634 25.5564 5.69894 25.627 0.794434C25.6762 -2.66423 25.26 -7.05418 25.3092 -10.6971C25.4023 -17.3862 25.4579 -19.6755 25.0578 -25.8827C24.9668 -27.2817 25.1177 -29.914 25.0792 -31.3159C25.0524 -32.2557 25.0278 -33.469 25 -34.406C25 -34.406 28.4592 -33.4208 31.1416 -34.1693C35.4193 -35.36 42.4971 -34.1353 42.4971 -34.1353C42.9165 -33.1827 42.9743 -30.9672 42.9636 -30.4214C42.8834 -26.3235 42.8202 -27.7637 42.9272 -23.6657C43.0257 -19.8031 42.4843 -16.3897 42.4843 -10.9324C42.4843 -7.3476 42.8887 -4.99033 42.9818 -2.60328C43.0781 -0.145359 42.755 1.91425 42.8759 5.81092C42.9497 8.21356 42.908 14.5086 42.939 15.0884C42.939 15.0884 30.1957 15.1876 27.4791 14.7553C26.0432 14.527 25.4141 14.8162 25.4141 14.8162Z" fill="#77B8B8"/>
<path d="M2.42392 -35.8694C2.49486 -27.6721 2.5529 -18.5845 2.86891 -11.1776C2.97425 -8.70914 2.91835 -5.61326 2.99574 -2.79683C3.02906 -1.54204 2.85816 0.959329 2.78077 2.62508C2.71843 3.97439 2.7453 5.32781 2.77002 6.67849C2.79797 8.11 2.82269 11.1031 2.72381 11.1675C2.06814 11.036 1.37486 11.0278 0.637504 11.1675C0.39781 10.0675 0.557964 9.03602 0.571937 7.89356C0.706295 -1.9434 0.16994 -9.12969 0.296774 -18.1886C0.340843 -21.1283 0.263453 -25.1447 0.0818017 -28.0776C-0.0719032 -30.6146 -0.00311207 -33.4707 0.238731 -35.9968C0.998657 -36.0132 1.72419 -35.9666 2.42392 -35.8694Z" fill="#FBBD94"/>
<path d="M23.3475 -35.5676C23.5415 -31.2983 23.3901 -28.4867 23.4534 -24.8135C23.5063 -21.5897 23.7718 -18.8403 23.6255 -15.1394C23.499 -11.9461 23.7428 -8.74303 23.7936 -5.54416C23.8434 -2.43242 23.889 0.682088 23.9149 3.7966C23.9575 6.20716 23.9979 8.39091 24 10.8056C24 11.2108 23.9658 12.0738 23.9658 12.4777C23.9658 12.4777 23.3289 12.3186 22.7075 12.3905C21.1402 12.5786 19.9297 12.3283 19.4733 12.2135C19.0853 12.096 19.409 3.67904 19.4193 2.90456C19.4598 -0.256966 19.4702 -3.4185 19.4598 -6.57864C19.4494 -9.7789 19.2233 -13.1742 19.1777 -16.373C19.1299 -19.6079 19.2627 -22.6422 19.1994 -25.8742C19.1351 -29.1367 19.0636 -31.9124 19.0003 -35.1749C18.9868 -35.8387 19.4567 -36.1858 20.2461 -35.8982C21.2948 -35.5123 22.3943 -35.9715 23.3475 -35.5676Z" fill="#F79534"/>
<path d="M8.00773 -32.7253C8.1999 -32.6903 8.34326 -32.4678 8.34834 -32.2032C8.44189 -26.7082 8.53034 -21.7577 8.7886 -16.0794C8.88926 -13.8273 8.97263 -10.5018 8.73573 -7.85648C8.42155 -4.37557 9.06719 -1.5525 8.88723 1.94661C8.65032 6.56123 9.14752 10.3529 8.95433 14.9731L4.78968 15.0976C4.44703 15.1144 4.13386 14.6665 4.18369 13.5622C4.23046 12.4565 4.16233 7.70053 4.16233 4.13285C4.16233 0.565162 4.506 -2.75619 4.22029 -6.72837C4.07998 -8.68927 4.41754 -10.7733 4.33417 -12.7426C4.18674 -16.3061 4.10336 -19.4189 4.04846 -22.988C4.01694 -25.0945 4.05049 -28.3332 4.00372 -30.4047C3.96712 -31.8477 4.19894 -32.9059 4.77747 -33.2642C5.43837 -33.6757 7.25532 -32.8653 8.00773 -32.7253Z" fill="#87B4AF"/>
</svg>
