<svg version="1.1" xmlns="http://www.w3.org/2000/svg" x="0px" y="0px"
	 width="100%" viewBox="0 0 300 290" xml:space="preserve">
<path fill="currentColor" opacity="1.000000" stroke="none" 
	d="
M166.000000,15.999844 
	C198.649124,15.999882 230.798264,15.993323 262.947388,16.004101 
	C272.216827,16.007212 275.984192,19.770998 275.995941,29.019688 
	C276.012238,41.846004 276.022827,54.672409 275.991882,67.498672 
	C275.971222,76.049957 272.020386,79.990959 263.422089,79.992409 
	C186.464066,80.005379 109.506027,80.005516 32.548000,79.992188 
	C23.945501,79.990700 20.026695,76.061409 20.007584,67.474052 
	C19.978666,54.481197 19.977831,41.488190 20.007893,28.495342 
	C20.027725,19.924381 23.954166,16.010731 32.572601,16.007557 
	C76.881729,15.991237 121.190865,15.999904 166.000000,15.999844 
z"/>
<path fill="currentColor" opacity="1.000000" stroke="none" 
	d="
M29.620907,175.949036 
	C22.272978,173.665619 20.022430,170.696716 20.007830,163.605026 
	C19.980728,150.442871 19.967798,137.280502 20.012163,124.118431 
	C20.039000,116.156830 24.082878,112.017242 31.954109,112.014771 
	C109.261292,111.990524 186.568481,111.991791 263.875671,112.012421 
	C272.018829,112.014595 275.970947,116.115280 275.991486,124.452927 
	C276.023468,137.448441 276.021149,150.444153 275.992462,163.439697 
	C275.973480,172.034775 272.049164,175.990997 263.476807,175.991745 
	C185.669846,175.998550 107.862877,175.985565 29.620907,175.949036 
z"/>
<path fill="currentColor" opacity="1.000000" stroke="none" 
	d="
M162.000000,207.999863 
	C195.981735,207.999908 229.463486,207.993591 262.945221,208.004105 
	C272.215790,208.007004 275.984100,211.770538 275.995911,221.017502 
	C276.012268,233.843826 276.022766,246.670242 275.991913,259.496490 
	C275.971313,268.049805 272.021820,271.990936 263.424255,271.992401 
	C186.466232,272.005402 109.508202,272.005524 32.550171,271.992249 
	C23.946383,271.990753 20.026770,268.062256 20.007607,259.476196 
	C19.978605,246.483368 19.977894,233.490356 20.007872,220.497513 
	C20.027653,211.924500 23.952599,208.010941 32.570435,208.007614 
	C75.546951,207.991013 118.523476,207.999924 162.000000,207.999863 
z"/>
</svg>