<svg version="1.0" xmlns="http://www.w3.org/2000/svg"
 width="113.000000pt" height="85.000000pt" viewBox="0 0 113.000000 85.000000"
 preserveAspectRatio="xMidYMid meet">
<g transform="translate(0.000000,85.000000) scale(0.100000,-0.100000)"
fill="currentColor" stroke="none">
<path d="M130 425 l0 -165 435 0 435 0 0 165 0 165 -435 0 -435 0 0 -165z
m840 0 l0 -145 -405 0 -405 0 0 145 0 145 405 0 405 0 0 -145z"/>
<path d="M261 438 c-13 -29 -25 -59 -28 -65 -3 -7 2 -13 11 -13 9 0 16 5 16
10 0 6 16 10 35 10 19 0 35 -4 35 -10 0 -5 7 -10 15 -10 19 0 19 -6 -9 65 -14
33 -31 61 -39 63 -9 2 -22 -17 -36 -50z m49 -25 c0 -7 -7 -13 -15 -13 -16 0
-19 9 -9 35 5 13 8 14 15 3 5 -7 9 -19 9 -25z"/>
<path d="M380 425 l0 -65 51 0 c36 0 49 4 46 13 -2 7 -16 11 -35 9 l-32 -4 0
56 c0 43 -3 56 -15 56 -12 0 -15 -14 -15 -65z"/>
<path d="M510 470 c-41 -41 -10 -110 48 -110 36 0 62 28 62 67 0 57 -69 84
-110 43z m74 -19 c32 -36 -3 -83 -45 -61 -24 13 -25 56 -1 69 24 14 26 14 46
-8z"/>
<path d="M657 472 c-36 -40 -10 -112 40 -112 40 0 53 11 53 46 0 30 -3 34 -25
34 -25 0 -33 -14 -15 -25 18 -11 10 -25 -14 -25 -27 0 -41 26 -30 54 4 10 18
16 39 16 37 0 54 14 29 24 -29 11 -61 6 -77 -12z"/>
<path d="M790 470 c-24 -24 -26 -57 -4 -88 18 -26 59 -29 92 -6 45 31 14 114
-43 114 -14 0 -34 -9 -45 -20z m80 -45 c0 -31 -35 -52 -56 -34 -19 16 -18 56
3 68 25 13 53 -5 53 -34z"/>
</g>
</svg>
