<svg width="21" height="23" viewBox="0 0 21 23" stroke="currentColor" fill="none" xmlns="http://www.w3.org/2000/svg">
<path d="M13.5889 17.5101V18.2897C13.5889 19.1168 13.2635 19.9101 12.6843 20.4949C12.1052 21.0798 11.3196 21.4084 10.5006 21.4084C9.68151 21.4084 8.89599 21.0798 8.31683 20.4949C7.73766 19.9101 7.41229 19.1168 7.41229 18.2897V17.5101M18.7849 15.923C17.5457 14.3914 16.6709 13.6118 16.6709 9.38942C16.6709 5.5228 14.7156 4.14523 13.1063 3.47619C12.8926 3.3875 12.6913 3.18382 12.6262 2.9621C12.3439 1.99191 11.5525 1.13721 10.5006 1.13721C9.44863 1.13721 8.65677 1.9924 8.37738 2.96307C8.31223 3.18723 8.11101 3.3875 7.89724 3.47619C6.28603 4.14621 4.33268 5.5189 4.33268 9.38942C4.33027 13.6118 3.45541 14.3914 2.21624 15.923C1.70281 16.5574 2.15254 17.5101 3.05056 17.5101H17.9554C18.8486 17.5101 19.2954 16.5545 18.7849 15.923Z" stroke-width="2" stroke-linecap="round" stroke-linejoin="round"/>
</svg>
