<svg width="52" height="151" viewBox="0 0 52 151" fill="none" xmlns="http://www.w3.org/2000/svg">
<path d="M18.5419 63.5562C-54.3629 60.9492 -126.985 64.1492 -200.539 63.2914C-214.051 63.1385 -228.525 63.959 -242.098 63.4704C-243.702 63.4145 -244.924 63.1833 -244.962 61.9898C-244.61 60.36 -244.305 58.7265 -245 57.0743C-235.254 56.5484 -227.723 56.7498 -219.329 56.3209C-201.036 55.3848 -186.103 55.9106 -166.153 55.8323C-132.003 55.7092 -97.2121 54.2957 -63.1161 55.519C-50.9716 55.9479 -31.0517 55.9964 -18.8843 55.6906C-6.51077 55.3847 2.66248 55.0677 18.4426 55.4407C19.1682 58.3236 19.1835 61.0276 18.5419 63.5562Z" fill="#EB5A3C"/>
<path d="M-224.414 51.4622C-213.179 51.9022 -195.795 50.7278 -186.759 50.7091C-181.466 50.6979 -159.552 50.4108 -154.282 50.5749C-145.514 50.8396 -136.677 50.642 -127.87 50.642C-116.657 50.6308 -105.46 50.9477 -94.2398 50.8881C-80.0179 50.8135 -65.8646 50.1349 -51.6503 49.8963C-22.053 49.3893 17.3056 51.5181 38.1497 50.6308C39.7614 47.0031 40.1815 42.5478 39.9447 37.6488C23.4619 36.4185 6.91793 36.754 -13.1548 36.9069C-26.1928 37.0001 -41.3543 36.4371 -60.7014 36.5639C-75.4045 36.6571 -92.9872 38.4914 -104.864 37.7457C-122.035 36.6683 -139.732 36.534 -157.055 37.3543C-181.833 38.5175 -222.497 38.0888 -223.024 38.2528" fill="#A52C38"/>
<path d="M-225.011 89.6218C-194.405 90.2035 -175.883 90.1177 -149.455 90.3638C-130.819 90.5353 -107.164 89.085 -87.534 89.2565C-51.4903 89.5808 -39.1549 89.7747 -5.70803 88.3803C1.83069 88.0634 16.0145 88.5891 23.5685 88.4549C28.6325 88.3616 35.1706 88.2759 40.2193 88.179C40.2193 88.179 34.9109 100.233 38.9438 109.579C45.3597 124.485 38.7605 149.148 38.7605 149.148C33.6277 150.61 21.6895 150.811 18.7489 150.774C-3.3326 150.494 4.42762 150.274 -17.6539 150.647C-38.4674 150.99 -56.8598 149.103 -86.2661 149.103C-105.583 149.103 -118.285 150.513 -131.147 150.837C-144.391 151.173 -155.489 150.047 -176.486 150.468C-189.433 150.725 -223.353 150.58 -226.477 150.688C-226.477 150.688 -227.012 106.284 -224.682 96.8175C-223.452 91.8141 -225.011 89.6218 -225.011 89.6218Z" fill="#77B8B8"/>
<path d="M51.2711 8.41054C5.56519 8.65669 -45.1054 8.85809 -86.4042 9.95459C-100.168 10.3201 -117.43 10.1262 -133.134 10.3947C-140.13 10.5103 -154.077 9.9173 -163.365 9.64877C-170.888 9.43246 -178.435 9.5257 -185.966 9.61148C-193.947 9.70845 -210.637 9.79423 -210.996 9.45111C-210.262 7.17608 -210.216 4.77052 -210.996 2.21204C-204.862 1.38035 -199.111 1.93606 -192.741 1.98454C-137.892 2.45073 -97.823 0.589676 -47.3128 1.02976C-30.9216 1.18267 -8.52695 0.914138 7.82604 0.283841C21.9717 -0.249487 37.8969 -0.0107967 51.9814 0.828351C52.0731 3.46515 51.8134 5.9826 51.2711 8.41054Z" fill="#FAC39B"/>
<path d="M48.8426 82.9404C25.2641 83.6376 9.73598 83.0932 -10.5506 83.3206C-28.3548 83.5108 -43.5392 84.4652 -63.9785 83.9396C-81.6147 83.4847 -99.3043 84.3609 -116.971 84.5435C-134.157 84.7225 -151.357 84.8866 -168.558 84.9798C-181.871 85.1326 -193.932 85.278 -207.268 85.2855C-209.506 85.2855 -214.272 85.1625 -216.502 85.1625C-216.502 85.1625 -215.624 82.8733 -216.021 80.64C-217.06 75.0065 -215.677 70.6556 -215.043 69.0151C-214.394 67.6207 -167.909 68.784 -163.632 68.8212C-146.171 68.9666 -128.711 69.0039 -111.258 68.9666C-93.5835 68.9294 -74.8321 68.1166 -57.1654 67.9525C-39.3001 67.781 -22.5423 68.2583 -4.69224 68.0308C13.3258 67.7997 28.6554 67.5424 46.6734 67.315C50.3397 67.2665 52.2568 68.9554 50.6681 71.7927C48.5371 75.562 51.0729 79.514 48.8426 82.9404Z" fill="#FF9619"/>
<path d="M30.243 28.9284C30.0521 29.6331 28.8376 30.1588 27.3941 30.1774C-2.59274 30.5204 -29.6084 30.8448 -60.5957 31.7918C-72.8853 32.1609 -91.0332 32.4666 -105.469 31.5979C-124.465 30.4459 -139.871 32.8133 -158.966 32.1534C-184.148 31.2847 -204.839 33.1079 -230.052 32.3995L-230.732 17.1283C-230.824 15.8719 -228.38 14.7236 -222.353 14.9062C-216.319 15.0777 -190.365 14.8279 -170.896 14.8279C-151.427 14.8279 -133.302 16.0881 -111.625 15.0405C-100.924 14.5259 -89.5514 15.7637 -78.8047 15.458C-59.3584 14.9174 -42.3715 14.6117 -22.8946 14.4104C-11.3994 14.2948 6.27498 14.4178 17.5792 14.2463C25.454 14.1121 31.2283 14.9621 33.1837 17.0836C35.4292 19.507 31.0068 26.1695 30.243 28.9284Z" fill="#91B9B4"/>
</svg>
