<svg width="20" height="20" viewBox="0 0 20 20" fill="currentColor" xmlns="http://www.w3.org/2000/svg">
<path d="M19.2344 3.28744L10.2344 0.287444C10.0817 0.240448 9.91836 0.240448 9.76564 0.287444L0.775019 3.28744H0.756269L0.662519 3.33432H0.653144L0.559394 3.39057C0.559394 3.39994 0.550019 3.39994 0.540644 3.40932L0.465644 3.47494L0.400019 3.54994C0.400019 3.55932 0.390644 3.55932 0.390644 3.56869L0.334394 3.65307C0.334394 3.66244 0.334394 3.66244 0.325019 3.67182L0.287519 3.75619L0.259394 3.85932V3.88744C0.250147 3.92418 0.24698 3.96218 0.250019 3.99994V11.4999C0.250019 11.6989 0.329037 11.8896 0.469689 12.0303C0.610342 12.1709 0.801107 12.2499 1.00002 12.2499C1.19893 12.2499 1.3897 12.1709 1.53035 12.0303C1.671 11.8896 1.75002 11.6989 1.75002 11.4999V5.04057L4.90002 6.09057C4.30823 7.03782 3.99624 8.13304 4.00002 9.24994C4.00036 10.2657 4.2586 11.2648 4.75051 12.1535C5.24243 13.0423 5.95193 13.7916 6.81252 14.3312C5.02414 15.0077 3.49739 16.2357 2.45314 17.8374C2.34671 18.0058 2.31065 18.2091 2.35273 18.4038C2.39482 18.5984 2.51168 18.7688 2.67814 18.8781C2.75983 18.9322 2.85145 18.9696 2.94769 18.988C3.04393 19.0065 3.14288 19.0057 3.2388 18.9856C3.33472 18.9656 3.42571 18.9267 3.50649 18.8712C3.58727 18.8157 3.65623 18.7448 3.70939 18.6624C4.39014 17.6139 5.32221 16.7521 6.42085 16.1555C7.51949 15.5588 8.74984 15.2463 10 15.2463C11.2502 15.2463 12.4806 15.5588 13.5792 16.1555C14.6778 16.7521 15.6099 17.6139 16.2906 18.6624C16.3591 18.7664 16.4524 18.8517 16.562 18.9106C16.6717 18.9695 16.7943 19.0002 16.9188 18.9999C17.0624 19.0015 17.2031 18.9589 17.3219 18.8781C17.4884 18.7688 17.6052 18.5984 17.6473 18.4038C17.6894 18.2091 17.6533 18.0058 17.5469 17.8374C16.5027 16.2357 14.9759 15.0077 13.1875 14.3312C14.0481 13.7916 14.7576 13.0423 15.2495 12.1535C15.7414 11.2648 15.9997 10.2657 16 9.24994C16.0038 8.13304 15.6918 7.03782 15.1 6.09057L19.2344 4.71244C19.3844 4.66312 19.5151 4.56769 19.6077 4.43975C19.7003 4.31181 19.7502 4.15789 19.7502 3.99994C19.7502 3.842 19.7003 3.68808 19.6077 3.56014C19.5151 3.4322 19.3844 3.33676 19.2344 3.28744ZM14.5 9.24994C14.5 10.4434 14.0259 11.588 13.182 12.4319C12.3381 13.2758 11.1935 13.7499 10 13.7499C8.80655 13.7499 7.66195 13.2758 6.81804 12.4319C5.97413 11.588 5.50002 10.4434 5.50002 9.24994C5.50183 8.28969 5.80698 7.35457 6.37189 6.57807L9.76564 7.71244C9.91788 7.76253 10.0822 7.76253 10.2344 7.71244L13.6281 6.57807C14.1931 7.35457 14.4982 8.28969 14.5 9.24994ZM13.6281 5.00307H13.6188L10 6.21244L6.38127 5.00307H6.37189L3.37189 3.99994L10 1.78744L16.6281 3.99994L13.6281 5.00307Z"/>
</svg>
