<svg width="10" height="10" viewBox="0 0 10 10" fill="none" xmlns="http://www.w3.org/2000/svg">
<path d="M4.0575 8.85897C4.00917 8.81188 3.8025 8.63409 3.6325 8.46848C2.56333 7.49754 0.813333 4.96467 0.279167 3.63896C0.193333 3.43763 0.0116667 2.92862 0 2.65666C0 2.39607 0.06 2.14765 0.181667 1.9106C0.351667 1.6151 0.619167 1.37804 0.935 1.24815C1.15417 1.16454 1.81 1.03464 1.82167 1.03464C2.53917 0.904753 3.705 0.833313 4.99333 0.833313C6.22083 0.833313 7.33917 0.904753 8.0675 1.0111C8.07917 1.02328 8.89417 1.15317 9.17333 1.29524C9.68333 1.55583 10 2.06484 10 2.60958V2.65666C9.9875 3.01143 9.67083 3.75749 9.65917 3.75749C9.12417 5.01175 7.46 7.48618 6.35417 8.48066C6.35417 8.48066 6.07 8.76074 5.8925 8.88251C5.6375 9.07248 5.32167 9.16665 5.00583 9.16665C4.65333 9.16665 4.325 9.0603 4.0575 8.85897" fill="#F77E34"/>
</svg>
