<svg width="16" height="14" viewBox="0 0 16 14" fill="currentColor"  xmlns="http://www.w3.org/2000/svg">
<path d="M7.7 10H5.81L2.891 5.961L2.296 6.682V10H0.84V0.199999H2.296V4.421L5.824 0.199999H7.728L3.85 4.827L7.7 10ZM13.7361 3H15.1921V10.182C15.1921 10.6627 15.0895 11.106 14.8841 11.512C14.6835 11.918 14.4105 12.268 14.0651 12.562C13.7198 12.8607 13.3231 13.0917 12.8751 13.255C12.4318 13.4183 11.9675 13.5 11.4821 13.5C10.9921 13.5 10.5208 13.395 10.0681 13.185C9.61547 12.9797 9.21647 12.6997 8.87114 12.345C8.53047 11.9903 8.27614 11.589 8.10814 11.141L9.44514 10.539C9.53847 10.8283 9.68781 11.085 9.89314 11.309C10.1031 11.533 10.3458 11.7103 10.6211 11.841C10.9011 11.9717 11.1881 12.037 11.4821 12.037C11.7715 12.037 12.0491 11.9903 12.3151 11.897C12.5858 11.8083 12.8261 11.6823 13.0361 11.519C13.2508 11.3557 13.4211 11.1597 13.5471 10.931C13.6731 10.7023 13.7361 10.4527 13.7361 10.182V8.999C13.5075 9.35367 13.2135 9.64067 12.8541 9.86C12.4948 10.0747 12.0771 10.182 11.6011 10.182C11.1065 10.182 10.6398 10.0863 10.2011 9.895C9.76247 9.70367 9.37747 9.44 9.04614 9.104C8.71481 8.76333 8.45581 8.37133 8.26914 7.928C8.08247 7.48467 7.98914 7.00867 7.98914 6.5C7.98914 5.99133 8.08247 5.51533 8.26914 5.072C8.45581 4.624 8.71481 4.232 9.04614 3.896C9.37747 3.55533 9.76247 3.28933 10.2011 3.098C10.6398 2.90667 11.1065 2.811 11.6011 2.811C12.0771 2.811 12.4948 2.92067 12.8541 3.14C13.2135 3.35467 13.5075 3.64167 13.7361 4.001V3ZM11.6151 8.775C12.0211 8.775 12.3758 8.67233 12.6791 8.467C12.9825 8.257 13.2181 7.97933 13.3861 7.634C13.5541 7.28867 13.6381 6.91067 13.6381 6.5C13.6381 6.08 13.5518 5.69967 13.3791 5.359C13.2111 5.01367 12.9755 4.73833 12.6721 4.533C12.3688 4.323 12.0165 4.218 11.6151 4.218C11.2231 4.218 10.8638 4.32067 10.5371 4.526C10.2151 4.73133 9.95847 5.00667 9.76714 5.352C9.57581 5.69733 9.48014 6.08 9.48014 6.5C9.48014 6.92 9.57581 7.30267 9.76714 7.648C9.96314 7.99333 10.2221 8.26867 10.5441 8.474C10.8708 8.67467 11.2278 8.775 11.6151 8.775Z" />
</svg>
