<svg width="16" height="18" viewBox="0 0 16 18" fill="currentColor" xmlns="http://www.w3.org/2000/svg">
<path fill-rule="evenodd" clip-rule="evenodd" d="M0.916992 7.59815C0.916992 3.76493 4.12023 0.666687 7.99486 0.666687C11.8804 0.666687 15.0837 3.76493 15.0837 7.59815C15.0837 9.52976 14.3812 11.323 13.2249 12.843C11.9493 14.5196 10.3771 15.9804 8.60744 17.127C8.20242 17.392 7.83689 17.412 7.39237 17.127C5.61261 15.9804 4.0404 14.5196 2.77574 12.843C1.61865 11.323 0.916992 9.52976 0.916992 7.59815ZM5.66218 7.81398C5.66218 9.09811 6.71004 10.1081 7.99486 10.1081C9.28053 10.1081 10.3385 9.09811 10.3385 7.81398C10.3385 6.53985 9.28053 5.48071 7.99486 5.48071C6.71004 5.48071 5.66218 6.53985 5.66218 7.81398Z"/>
</svg>
