<svg width="21" height="20" viewBox="0 0 21 20" fill="none" stroke="currentColor" xmlns="http://www.w3.org/2000/svg">
<path d="M10.8701 14.6768V12.1398" stroke-width="1.5" stroke-linecap="round" stroke-linejoin="round"/>
<path fill-rule="evenodd" clip-rule="evenodd" d="M17.065 3.3302C18.755 3.3302 20.115 4.7002 20.115 6.3902V9.8302C17.655 11.2702 14.405 12.1402 10.865 12.1402C7.325 12.1402 4.085 11.2702 1.625 9.8302V6.3802C1.625 4.6902 2.995 3.3302 4.685 3.3302H17.065Z" stroke-width="1.5" stroke-linecap="round" stroke-linejoin="round"/>
<path d="M14.3701 3.32579V2.95979C14.3701 1.73979 13.3801 0.749786 12.1601 0.749786H9.58012C8.36012 0.749786 7.37012 1.73979 7.37012 2.95979V3.32579" stroke-width="1.5" stroke-linecap="round" stroke-linejoin="round"/>
<path d="M1.64941 13.483L1.83841 15.992C1.96641 17.683 3.37541 18.99 5.07041 18.99H16.6694C18.3644 18.99 19.7734 17.683 19.9014 15.992L20.0904 13.483" stroke-width="1.5" stroke-linecap="round" stroke-linejoin="round"/>
</svg>
