<svg width="18" height="16" viewBox="0 0 18 16" fill="none" xmlns="http://www.w3.org/2000/svg">
<path d="M9.81342 0.594719L11.6688 4.32328C11.8055 4.59342 12.0664 4.78101 12.3673 4.8227L16.5349 5.42968C16.7783 5.46386 16.9991 5.59226 17.1483 5.78819C17.2959 5.98162 17.3592 6.22675 17.3234 6.46771C17.2942 6.66781 17.2 6.8529 17.0558 6.99464L14.036 9.92196C13.8151 10.1262 13.7151 10.4289 13.7684 10.7249L14.5119 14.8403C14.5911 15.3372 14.2619 15.8058 13.7684 15.9C13.5651 15.9325 13.3567 15.8983 13.1733 15.805L9.45585 13.8681C9.17995 13.7289 8.85405 13.7289 8.57816 13.8681L4.86069 15.805C4.40393 16.0476 3.83797 15.8825 3.58375 15.4323C3.48956 15.253 3.45622 15.0487 3.48706 14.8495L4.23056 10.7332C4.2839 10.4381 4.18305 10.1337 3.963 9.92947L0.943185 7.00381C0.583941 6.65697 0.573105 6.08584 0.919013 5.72649C0.926514 5.71899 0.934849 5.71065 0.943185 5.70232C1.08655 5.55641 1.27492 5.46386 1.4783 5.43968L5.64586 4.83187C5.94593 4.78935 6.20681 4.60342 6.34434 4.33162L8.13306 0.594719C8.29226 0.274556 8.62233 0.0752883 8.98074 0.0836259H9.09243C9.40333 0.121145 9.67423 0.313743 9.81342 0.594719" fill="#F3B004"/>
<path d="M8.99318 13.7643C8.83176 13.7693 8.67451 13.8127 8.53306 13.8902L4.83377 15.8227C4.38114 16.0387 3.83947 15.871 3.5857 15.4382C3.49168 15.2614 3.45756 15.0587 3.48918 14.8602L4.22804 10.7527C4.27796 10.4541 4.17812 10.1505 3.96095 9.94034L0.939785 7.01544C0.581172 6.66432 0.574516 6.08801 0.92564 5.72855C0.930632 5.72355 0.934793 5.71938 0.939785 5.7152C1.0829 5.57342 1.26761 5.48001 1.46647 5.45082L5.63753 4.83698C5.93956 4.79862 6.20166 4.61013 6.33479 4.33657L8.14782 0.552639C8.32005 0.247389 8.65038 0.0655732 8.99984 0.0847556C8.99318 0.332459 8.99318 13.5958 8.99318 13.7643" fill="#F3B004"/>
</svg>
